PathFileType	4	(X/Y/Z)	/Users/itak/Documents/Research/Walk-IL/dataset/trc/00289_00010.trc
DataRate	CameraRate	NumFrames	NumMarkers	Units	OrigDataRate	OrigDataStartFrame	OrigNumFrames
100.000000	100.000000	4	53	mm	100.000000	248	662
Frame#	Time	RPSI			LPSI			L3			STRN			T10			C7			CLAV			RBAK			LBAK			LSHO			LUPA			LAEL			LAOL			LWTS			LWPS			LFRA			LIFD			LHPS			LHTS			RSHO			RUPA			RAEL			RAOL			RWTS			RWPS			RFRA			RIFD			RHTS			RHPS			RBHD			LFHD			RFHD			LBHD			LHIP			RHIP			RASI			LASI			LKNE			LTHI			LANK			LTIP			LTOE			LMT1			LMT5			LHEE			RKNE			RTHI			RANK			RTIP			RTOE			RMT1			RMT5			RHEE			
		X1	Y1	Z1	X2	Y2	Z2	X3	Y3	Z3	X4	Y4	Z4	X5	Y5	Z5	X6	Y6	Z6	X7	Y7	Z7	X8	Y8	Z8	X9	Y9	Z9	X10	Y10	Z10	X11	Y11	Z11	X12	Y12	Z12	X13	Y13	Z13	X14	Y14	Z14	X15	Y15	Z15	X16	Y16	Z16	X17	Y17	Z17	X18	Y18	Z18	X19	Y19	Z19	X20	Y20	Z20	X21	Y21	Z21	X22	Y22	Z22	X23	Y23	Z23	X24	Y24	Z24	X25	Y25	Z25	X26	Y26	Z26	X27	Y27	Z27	X28	Y28	Z28	X29	Y29	Z29	X30	Y30	Z30	X31	Y31	Z31	X32	Y32	Z32	X33	Y33	Z33	X34	Y34	Z34	X35	Y35	Z35	X36	Y36	Z36	X37	Y37	Z37	X38	Y38	Z38	X39	Y39	Z39	X40	Y40	Z40	X41	Y41	Z41	X42	Y42	Z42	X43	Y43	Z43	X44	Y44	Z44	X45	Y45	Z45	X46	Y46	Z46	X47	Y47	Z47	X48	Y48	Z48	X49	Y49	Z49	X50	Y50	Z50	X51	Y51	Z51	X52	Y52	Z52	X53	Y53	Z53	

249	2.48	-692.9725952148438	979.3543090820312	92.92496490478516	-863.4877319335938	979.8026733398438	49.35527420043945	-784.9996948242188	1050.137329101562	54.30111312866211	-717.40673828125	1235.285766601562	-178.8102264404297	-799.3595581054688	1168.443481445312	72.96726226806641	-798.8603515625	1414.579467773438	29.26163673400879	-738.0336303710938	1334.12060546875	-117.0688171386719	-751.3348999023438	1273.059814453125	104.6776351928711	-902.2765502929688	1381.56396484375	5.507362842559814	-917.7600708007812	1389.880859375	-97.69075775146484	-999.9552612304688	1276.880615234375	-93.4273681640625	-1024.83251953125	1075.225463867188	-97.79172515869141	-986.6715087890625	1061.378784179688	-20.30219841003418	-966.870361328125	851.4991455078125	-159.5917053222656	-1038.421875	843.6145629882812	-147.1142578125	-1035.550170898438	971.980712890625	-113.3132781982422	-978.2770385742188	666.7891235351562	-160.8017272949219	-1038.129028320312	754.3767700195312	-147.7495422363281	-982.5579223632812	752.8441772460938	-183.8052520751953	-630.01806640625	1389.562622070312	30.8619327545166	-574.4662475585938	1333.455322265625	68.08191680908203	-552.6021118164062	1076.64697265625	136.3203430175781	-645.9263916015625	1069.183227539062	119.7664489746094	-550.3688354492188	849.5914916992188	34.52822494506836	-507.9435119628906	846.813720703125	108.8517456054688	-531.3619995117188	1007.429077148438	127.190544128418	-547.3593139648438	662.4468994140625	37.21727752685547	-523.5845336914062	733.027587890625	23.14586067199707	-502.2261657714844	734.188232421875	90.73308563232422	-731.84912109375	1572.572998046875	38.54690170288086	-683.4527587890625	1594.979370117188	-167.9896850585938	-622.119140625	1581.076538085938	-99.51068115234375	-830.4863891601562	1584.243530273438	-70.72402954101562	-940.4197387695312	936.4833374023438	-40.7039909362793	-571.4532470703125	925.1469116210938	18.19090461730957	-614.9862670898438	937.0390014648438	-112.6735000610352	-862.161865234375	944.45751953125	-165.1381988525391	-935.06982421875	495.286376953125	-228.8137664794922	-947.1714477539062	632.7100219726562	-181.9436950683594	-1063.69140625	194.3755340576172	81.58592224121094	-1008.945861816406	332.2105407714844	-89.26924133300781	-975.085205078125	47.20634841918945	-40.45258331298828	-950.312744140625	82.40677642822266	28.7083740234375	-1056.692749023438	104.5305480957031	0.1252292841672897	-1015.808410644531	220.2080993652344	131.3506317138672	-696.1866455078125	463.47412109375	-92.85528564453125	-597.7723388671875	712.845458984375	-69.2113037109375	-826.5333862304688	44.84431838989258	-52.4947509765625	-738.6851806640625	345.0046081542969	-112.9666976928711	-871.7203369140625	45.65491104125977	-253.9398193359375	-911.4591064453125	44.91667175292969	-197.2311553955078	-800.8360595703125	38.27156448364258	-156.8702392578125	-880.2884521484375	41.06792068481445	-5.150538444519043	
250	2.49	-694.3543090820312	980.2144165039062	86.85694122314453	-863.6810913085938	980.6561279296875	39.39424514770508	-784.4952392578125	1050.799926757812	46.00724411010742	-713.8103637695312	1235.880126953125	-186.0028991699219	-798.5479125976562	1169.121215820312	64.63971710205078	-797.6253051757812	1415.263671875	20.80342674255371	-735.5263061523438	1334.802734375	-124.6791076660156	-750.5386352539062	1274.047973632812	97.12306213378906	-900.7565307617188	1382.044189453125	-3.755414009094238	-915.60205078125	1390.266723632812	-107.0745468139648	-997.7870483398438	1277.243408203125	-101.9276580810547	-1021.826843261719	1075.518798828125	-102.9170913696289	-982.9691772460938	1062.767822265625	-25.71719741821289	-964.7838745117188	849.8677978515625	-160.1396789550781	-1036.2666015625	842.5706176757812	-146.7541198730469	-1032.951416015625	971.7113647460938	-116.1640014648438	-977.8186645507812	665.27734375	-157.8834838867188	-1036.447875976562	753.4481811523438	-145.5744476318359	-981.4356689453125	750.8870239257812	-182.3232574462891	-628.7565307617188	1390.50146484375	23.98250961303711	-573.3673706054688	1334.267578125	61.40401840209961	-550.005615234375	1077.043579101562	128.4729461669922	-643.1951293945312	1069.411865234375	112.5025100708008	-547.5294189453125	852.4863891601562	21.14819717407227	-503.922607421875	848.2711181640625	94.63140106201172	-528.2562866210938	1008.11328125	117.3915863037109	-542.8988647460938	665.3265380859375	19.42113304138184	-520.0128173828125	736.4488525390625	6.517900943756104	-497.4660034179688	736.268798828125	73.72054290771484	-730.8685913085938	1573.361083984375	30.21483612060547	-680.5564575195312	1595.329467773438	-175.9036560058594	-619.902587890625	1581.64306640625	-106.8391799926758	-828.5113525390625	1584.681030273438	-80.02516937255859	-938.9535522460938	937.4994506835938	-52.37601470947266	-571.0745239257812	925.3526611328125	14.9181957244873	-611.4166259765625	937.3494262695312	-116.8400573730469	-857.2510986328125	945.3833618164062	-175.1687164306641	-927.4461059570312	498.3770446777344	-245.7326354980469	-941.7681884765625	635.1218872070312	-197.4091949462891	-1067.284790039062	189.1396179199219	50.47112274169922	-1006.374145507812	331.9153747558594	-113.3577194213867	-976.6740112304688	47.57928466796875	-77.14388275146484	-953.5277709960938	78.12469482421875	-5.108918190002441	-1058.597778320312	104.1929321289062	-36.02371978759766	-1020.7265625	211.337646484375	103.3125610351562	-695.2061157226562	463.1590881347656	-92.45085906982422	-596.7542114257812	712.2860107421875	-70.79060363769531	-826.742919921875	44.82450485229492	-52.46612548828125	-738.1149291992188	344.9024353027344	-112.3553009033203	-871.7275390625	45.61012649536133	-253.9602813720703	-911.4838256835938	44.88516998291016	-197.23193359375	-800.9223022460938	38.31801223754883	-156.8550262451172	-880.3441772460938	41.21015548706055	-5.117064952850342	
251	2.5	-695.7705688476562	981.0867309570312	80.83437347412109	-863.8707275390625	981.4346923828125	29.38393020629883	-783.9142456054688	1051.364624023438	37.74365997314453	-710.0125122070312	1236.345092773438	-193.0493316650391	-797.6748046875	1169.728393554688	56.39603805541992	-796.2625732421875	1415.891723632812	12.37931251525879	-732.8427734375	1335.418823242188	-132.2197265625	-749.6126098632812	1274.976196289062	89.58736419677734	-899.0966796875	1382.4677734375	-12.98754692077637	-913.2646484375	1390.599243164062	-116.4328765869141	-995.4904174804688	1277.610229492188	-110.3823165893555	-1018.910400390625	1075.88427734375	-107.9839324951172	-979.2979736328125	1064.204956054688	-31.06428527832031	-962.8858032226562	848.5078735351562	-160.8039855957031	-1034.271850585938	841.7686157226562	-146.4443664550781	-1030.444580078125	971.6099853515625	-118.9844970703125	-977.281005859375	664.1132202148438	-155.1859436035156	-1034.825073242188	752.785400390625	-143.4938659667969	-980.4391479492188	749.264892578125	-180.9916839599609	-627.3677978515625	1391.34765625	17.16679954528809	-572.179931640625	1334.986938476562	54.82031631469727	-547.2108764648438	1077.3828125	120.8294982910156	-640.2394409179688	1069.515747070312	105.3604507446289	-544.4529418945312	855.6047973632812	7.745733261108398	-499.6883239746094	849.9102172851562	80.33556365966797	-524.9330444335938	1008.823120117188	107.7030487060547	-538.1583251953125	668.5747680664062	1.297732591629028	-516.1546020507812	740.235595703125	-10.29695320129395	-492.5028686523438	738.6301879882812	56.48687362670898	-729.8199462890625	1574.11669921875	21.89810371398926	-677.5480346679688	1595.599975585938	-183.7750091552734	-617.5997924804688	1582.167236328125	-114.1156616210938	-826.4453125	1585.017578125	-89.33142852783203	-937.4359130859375	938.55712890625	-63.99454498291016	-570.811279296875	925.418212890625	11.63483238220215	-607.9541625976562	937.5186157226562	-120.9164657592773	-852.2908325195312	946.2235717773438	-185.1044616699219	-919.3618774414062	501.2181396484375	-261.8526611328125	-935.9617309570312	637.2925415039062	-212.3706970214844	-1069.895141601562	183.093505859375	18.46372985839844	-1003.019958496094	331.1905517578125	-137.3606872558594	-975.4532470703125	47.87471389770508	-113.4674453735352	-954.6476440429688	73.8927001953125	-38.9798583984375	-1058.345458984375	103.1625518798828	-72.4052734375	-1025.156494140625	201.8694458007812	74.32675170898438	-694.247314453125	462.8670349121094	-92.07247924804688	-595.8279418945312	711.7194213867188	-72.2672119140625	-826.9390869140625	44.82569885253906	-52.43616104125977	-737.5869140625	344.7753295898438	-111.8948745727539	-871.7405395507812	45.56294250488281	-253.9778900146484	-911.5230102539062	44.85293579101562	-197.2365264892578	-801.0173950195312	38.36865615844727	-156.8371276855469	-880.41845703125	41.3558349609375	-5.09166955947876	
252	2.51	-697.2188110351562	981.9667358398438	74.81211090087891	-864.0559692382812	982.1437377929688	19.30110740661621	-783.280029296875	1051.83056640625	29.50227165222168	-706.0294799804688	1236.690673828125	-199.9785766601562	-796.7492065429688	1170.27197265625	48.25053024291992	-794.7636108398438	1416.4638671875	3.989628076553345	-729.98486328125	1335.952392578125	-139.6988983154297	-748.5580444335938	1275.855102539062	82.06858825683594	-897.292724609375	1382.838256835938	-22.18716239929199	-910.7445068359375	1390.875732421875	-125.7631530761719	-993.0673828125	1277.982421875	-118.80029296875	-1016.099731445312	1076.311889648438	-113.0372848510742	-975.7232055664062	1065.68603515625	-36.37516403198242	-961.1676635742188	847.4103393554688	-161.6390228271484	-1032.411254882812	841.1966552734375	-146.2832641601562	-1028.029174804688	971.6705932617188	-121.8485946655273	-976.5523681640625	663.2620849609375	-152.6307678222656	-1033.252807617188	752.3719482421875	-141.5829620361328	-979.4993286132812	747.9448852539062	-179.8181610107422	-625.8532104492188	1392.093872070312	10.40175819396973	-570.898193359375	1335.604858398438	48.32220840454102	-544.1790161132812	1077.658203125	113.3487701416016	-637.0823974609375	1069.493408203125	98.34445953369141	-541.1616821289062	858.96875	-5.66402006149292	-495.2714538574219	851.7442626953125	66.00105285644531	-521.4049072265625	1009.563598632812	98.1453857421875	-533.1664428710938	672.234375	-17.15062522888184	-512.0306396484375	744.4169921875	-27.26956176757812	-487.3757019042969	741.2940063476562	39.06444549560547	-728.6968994140625	1574.839477539062	13.59500598907471	-674.4248657226562	1595.787719726562	-191.6080322265625	-615.1981811523438	1582.64501953125	-121.3408432006836	-824.2780151367188	1585.255004882812	-98.6416015625	-935.8231811523438	939.6902465820312	-75.6021728515625	-570.6522827148438	925.386474609375	8.31562328338623	-604.5983276367188	937.5904541015625	-124.921257019043	-847.2786865234375	946.9877319335938	-194.9484405517578	-910.87548828125	503.79541015625	-277.19189453125	-929.7549438476562	639.2135009765625	-226.8253173828125	-1071.25732421875	176.3363342285156	-14.29227161407471	-998.8068237304688	330.0219116210938	-161.2822418212891	-971.4348754882812	48.07810974121094	-149.2155151367188	-953.533203125	69.74306488037109	-72.69851684570312	-1055.846557617188	101.4867782592773	-108.821907043457	-1028.794799804688	191.9400177001953	44.45914077758789	-693.3271484375	462.6061401367188	-91.79792022705078	-594.9615478515625	711.1824340820312	-73.73863983154297	-827.1187744140625	44.84583282470703	-52.40727996826172	-737.1104736328125	344.6095581054688	-111.6579360961914	-871.7623291015625	45.51941299438477	-253.986328125	-911.5782470703125	44.82262420654297	-197.2427368164062	-801.1141967773438	38.41890335083008	-156.8130035400391	-880.5165405273438	41.48395919799805	-5.073530673980713	
